# xmcd
#
# Track frame offsets: 
#        150
#        2468
#        10132
#        19173
#        25636
#        38597
#        50876
#        66234
#        84105
#        95546
#        102043
#        107354
#        112368
#        119922
#        152251
#        159792
#        166676
#        190694
#        201177
#        208128
#        215255
#        232453
#        250184
#        261054
#        269509
#        280135
#        287814
#        294408
#        307234
#        311279
#        323739
#        329969
#
# Disc length: 4588 seconds
#
# Revision: 1
# Processed by: cddbd v1.5.2PL0 Copyright (c) Steve Scherf et al.
# Submitted via: ExactAudioCopy v1.1
#
DISCID=c511ea20
DTITLE=Shing02 - FOR THE TYME BEING (part1) mixed by DJ Icewater
DYEAR=2009
DGENRE=Hip Hop
TTITLE0=DJ Icewater - Intro
TTITLE1=DJ Dai Nasty - Dai Nasty Break feat. Booty Brown
TTITLE2=DJ Conshus and DJ Icewater - Metroidz (Ice Blend)
TTITLE3=Joe Con - War With The Senses
TTITLE4=Nujabes - F.I.L.O. feat. Lyrics Born, DJ Kou
TTITLE5=Yakkle - Big City Lights (TOKiMONSTA Remix) feat. Tajai, DnZ
TTITLE6='93 till Rokkasho (DJ Hæs Remix)
TTITLE7=Eccy // Kensho Kuma - Ultimate High x V.O.L.S. feat. Tre, Jovi
TTITLE7=an
TTITLE8=Yakkle - Battle Cry Trifecta feat. Jern Eye
TTITLE9=Lord Order and Numbfingaz - G*A*M*E (Ice Blend) feat. Ghostface 
TTITLE9=Killah, Napoleon
TTITLE10=Headnodic - Zone feat. Jern Eye
TTITLE11=Aziz Habibi - OT_Anthem
TTITLE12=DJ $hin - Miditation feat. DJ Icewater
TTITLE13=Nujabes - Luv(sic) Part 3 feat. DJ A-1 x Luv(sic) (DJ Hæs Rem
TTITLE13=ix) feat. Emi Meyer
TTITLE14=Sacha - So Dear
TTITLE15=a.z - Start Again (a.z Remix)
TTITLE16=DJ Hæs - The Clash (DJ Hæs Remix) feat. DJ Icewater
TTITLE17=Junzo - Pearl Harbor 10th Anniversary Redux
TTITLE18=Versus Dois - Meu Habitar feat. Emi Meyer, Kirby Dominant
TTITLE19=DJ Narcis Jr and Jonny Wilson - New Era's Eve (Vector Omega Rem
TTITLE19=ix)
TTITLE20=Cave - Real Kings feat. DJ A-1
TTITLE21=Kento - Nossa Promessa (Ice Blend)
TTITLE22=Antonio Carlos Jobim - One Note Samba feat. DJ A-1
TTITLE23=The Grouch - Car Troubles Part.2 feat Kirby Dominant
TTITLE24=Yamabiko, Yakkle - Avatar (Shuichi Sugimoto's Four Heads Remi
TTITLE24=x)
TTITLE25=Range Strunk - Destruction feat. Imani
TTITLE26=JUZU - Grace
TTITLE27=KK - Lift The Fog Up
TTITLE28=Oji - Dance Phobia (OT Remix) feat. Spank Rock, Aziz Habibi, 
TTITLE28=Jasko
TTITLE29=Dick Dawg - Love You Like Water
TTITLE30=Yesterday (Corner Store Studio Session) feat. Jern Eye, Bonk
TTITLE31=DJ Top Bill - Follow Me
EXTD=YEAR: 2009
EXTT0=
EXTT1=
EXTT2=
EXTT3=
EXTT4=
EXTT5=
EXTT6=
EXTT7=
EXTT8=
EXTT9=
EXTT10=
EXTT11=
EXTT12=
EXTT13=
EXTT14=
EXTT15=
EXTT16=
EXTT17=
EXTT18=
EXTT19=
EXTT20=
EXTT21=
EXTT22=
EXTT23=
EXTT24=
EXTT25=
EXTT26=
EXTT27=
EXTT28=
EXTT29=
EXTT30=
EXTT31=
PLAYORDER=
